<?xml version="1.0" encoding="UTF-8"?>
<svg id="_图层_1" xmlns="http://www.w3.org/2000/svg" xmlns:xlink="http://www.w3.org/1999/xlink" version="1.1" viewBox="0 0 30 30">
  <!-- Generator: Adobe Illustrator 29.0.1, SVG Export Plug-In . SVG Version: 2.1.0 Build 192)  -->
  <defs>
    <style>
      .st0 {
        fill: url(#_未命名的渐变_9);
      }
    </style>
    <linearGradient id="_未命名的渐变_9" data-name="未命名的渐变 9" x1="6" y1="15" x2="24" y2="15" gradientUnits="userSpaceOnUse">
      <stop offset="0" stop-color="#e844a6"/>
      <stop offset="0" stop-color="#e244aa"/>
      <stop offset=".2" stop-color="#d247b5"/>
      <stop offset=".3" stop-color="#b74bc8"/>
      <stop offset=".4" stop-color="#9250e2"/>
      <stop offset=".5" stop-color="#7655f7"/>
      <stop offset=".5" stop-color="#7556f7"/>
      <stop offset=".6" stop-color="#637af7"/>
      <stop offset=".8" stop-color="#5694f7"/>
      <stop offset=".9" stop-color="#4ea4f7"/>
      <stop offset="1" stop-color="#4caaf7"/>
    </linearGradient>
  </defs>
  <path class="st0" d="M21,24.7c-1.2,1.1-2.4.9-3.7.4-1.3-.5-2.5-.6-3.8,0-1.7.7-2.6.5-3.6-.4-5.8-5.9-4.9-14.8,1.6-15.1,1.6,0,2.7.9,3.7.9,1.4-.3,2.7-1.1,4.2-1,1.8.1,3.1.8,4,2.1-3.7,2.2-2.8,7,.6,8.3-.7,1.8-1.6,3.5-3,4.8h0ZM15,9.5c-.2-2.6,2-4.7,4.4-5,.3,3-2.8,5.3-4.4,5Z"/>
</svg>